<svg width="24" height="24" viewBox="0 0 24 24" fill="none" xmlns="http://www.w3.org/2000/svg">
<circle cx="12" cy="9" r="5" stroke="#343944" stroke-width="2"/>
<path d="M6 15.5L5.75745 14.5299L5.17538 14.6754L5.02986 15.2575L6 15.5ZM11.9995 14L12.2419 13.0298C12.0827 12.99 11.9161 12.9901 11.757 13.0299L11.9995 14ZM18.0039 15.5L18.9743 15.2584L18.8291 14.6754L18.2463 14.5298L18.0039 15.5ZM5.97014 19.7425L6.97014 15.7425L5.02986 15.2575L4.02986 19.2575L5.97014 19.7425ZM6.24255 16.4701L12.2421 14.9701L11.757 13.0299L5.75745 14.5299L6.24255 16.4701ZM19.9704 19.2584L18.9743 15.2584L17.0335 15.7416L18.0296 19.7416L19.9704 19.2584ZM18.2463 14.5298L12.2419 13.0298L11.7571 14.9702L17.7615 16.4702L18.2463 14.5298Z" fill="#343944"/>
</svg>
